<svg width="20" height="26" viewBox="0 0 20 26" fill="none" xmlns="http://www.w3.org/2000/svg">
<path d="M14.5613 5.1875C14.5613 6.4307 14.0674 7.62299 13.1883 8.50206C12.3092 9.38114 11.117 9.875 9.87375 9.875C8.63055 9.875 7.43826 9.38114 6.55919 8.50206C5.68011 7.62299 5.18625 6.4307 5.18625 5.1875C5.18625 3.9443 5.68011 2.75201 6.55919 1.87294C7.43826 0.99386 8.63055 0.5 9.87375 0.5C11.117 0.5 12.3092 0.99386 13.1883 1.87294C14.0674 2.75201 14.5613 3.9443 14.5613 5.1875ZM0.5 22.835C0.540168 20.3754 1.54542 18.0302 3.29897 16.3051C5.05252 14.5799 7.41386 13.6131 9.87375 13.6131C12.3336 13.6131 14.695 14.5799 16.4485 16.3051C18.2021 18.0302 19.2073 20.3754 19.2475 22.835C16.3067 24.1835 13.1089 24.8794 9.87375 24.875C6.52875 24.875 3.35375 24.145 0.5 22.835Z" stroke="black" stroke-linecap="round" stroke-linejoin="round"/>
</svg>
