<svg width="17" height="20" viewBox="0 0 17 20" fill="none" xmlns="http://www.w3.org/2000/svg">
<path d="M11.0838 3.19C11.4618 2.75428 11.7501 2.24817 11.932 1.70074C12.1139 1.1533 12.1858 0.57533 12.1438 0C10.9831 0.09369 9.90575 0.63956 9.14375 1.52C8.77885 1.94198 8.50225 2.43288 8.33055 2.96364C8.15875 3.49441 8.09525 4.05424 8.14375 4.61C8.70985 4.61472 9.26945 4.4891 9.77935 4.24286C10.2892 3.99662 10.7355 3.63637 11.0838 3.19ZM13.6038 10.63C13.6104 9.8637 13.8123 9.1118 14.1902 8.4452C14.5681 7.77859 15.1096 7.21926 15.7638 6.82C15.351 6.22524 14.8053 5.73483 14.17 5.38767C13.5347 5.04052 12.8272 4.84615 12.1038 4.82C10.5438 4.66 9.10375 5.73 8.27375 5.73C7.44375 5.73 6.27375 4.84 4.97371 4.86C4.12383 4.888 3.29573 5.13578 2.57015 5.57919C1.84458 6.02259 1.24631 6.64648 0.83371 7.39C-0.92629 10.45 0.383711 15 2.14371 17.47C2.94371 18.68 3.94371 20.05 5.26371 20C6.58375 19.95 7.01375 19.18 8.54375 19.18C10.0738 19.18 10.5438 20 11.8438 19.97C13.1438 19.94 14.0638 18.73 14.9038 17.52C15.4988 16.6415 15.9636 15.6816 16.2838 14.67C15.4912 14.332 14.8151 13.7693 14.3388 13.0513C13.8625 12.3333 13.6069 11.4916 13.6038 10.63Z" fill="#BA0B2F"/>
</svg>
