<svg width="22" height="21" viewBox="0 0 22 21" fill="none" xmlns="http://www.w3.org/2000/svg">
<path d="M0.5 18.808V3.43915C0.5 2.95492 0.809859 2.52501 1.26924 2.37188L6.53848 0.615467C7.00034 0.461511 7.49966 0.461511 7.96152 0.615467L13.2884 2.39112C13.7504 2.54508 14.2496 2.54508 14.7116 2.39112L19.2693 0.871877C19.9977 0.629057 20.75 1.17127 20.75 1.93915V16.558C20.75 16.9841 20.5093 17.3737 20.1281 17.5642L15.0062 20.1252C14.3728 20.4419 13.6272 20.4419 12.9938 20.1252L8.25623 17.7564C7.62279 17.4397 6.87721 17.4397 6.24377 17.7564L2.12811 19.8142C1.3801 20.1882 0.5 19.6443 0.5 18.808Z" stroke="#BA0B2F" stroke-linecap="round" stroke-linejoin="round"/>
<path d="M14 2.6283V20.0658" stroke="#BA0B2F" stroke-linecap="round" stroke-linejoin="round"/>
<path d="M7.25 1.5033V17.2533" stroke="#BA0B2F" stroke-linecap="round" stroke-linejoin="round"/>
</svg>
